<svg width="48" height="48" viewBox="0 0 48 48" fill="none" xmlns="http://www.w3.org/2000/svg">
<path fill-rule="evenodd" clip-rule="evenodd" d="M33.5205 36C41.089 35.7667 44 30.9334 44 30.9334C44 20.2002 39.0685 11.5002 39.0685 11.5002C34.137 7.90028 29.4452 8.00028 29.4452 8.00028L28.9658 8.5336C34.7877 10.2669 37.4931 12.7669 37.4931 12.7669C33.9315 10.8669 30.4384 9.93359 27.1849 9.56693C24.7192 9.30026 22.3562 9.36693 20.2671 9.63359L19.6849 9.70026C18.4863 9.80026 15.5753 10.2336 11.911 11.8002C10.6438 12.3669 9.89041 12.7669 9.89041 12.7669C9.89041 12.7669 12.7329 10.1336 18.8973 8.40027L18.5548 8.00028C18.5548 8.00028 13.863 7.90028 8.93151 11.5002C8.93151 11.5002 4 20.2002 4 30.9334C4 30.9334 6.87671 35.7667 14.4452 36C14.4452 36 15.7123 34.5 16.7397 33.2334C12.3904 31.9667 10.7466 29.3001 10.7466 29.3001L11.7055 29.8667L11.8425 29.9667L11.9766 30.0417L12.0166 30.0584L12.1507 30.1334C13.0068 30.6001 13.863 30.9667 14.6507 31.2667C16.0548 31.8 17.7329 32.3334 19.6849 32.7C22.2534 33.1667 25.2671 33.3334 28.5548 32.7334C30.1644 32.4667 31.8082 32 33.5205 31.3C34.7192 30.8667 36.0548 30.2334 37.4589 29.3334C37.4589 29.3334 35.7466 32.0667 31.2603 33.3C32.2877 34.5667 33.5205 36 33.5205 36ZM17.5959 20.4335C15.6438 20.4335 14.1027 22.1001 14.1027 24.1334C14.1027 26.1668 15.6781 27.8334 17.5959 27.8334C19.5479 27.8334 21.089 26.1668 21.089 24.1334C21.1233 22.1001 19.5479 20.4335 17.5959 20.4335ZM30.0959 20.4335C28.1438 20.4335 26.6027 22.1001 26.6027 24.1334C26.6027 26.1668 28.1781 27.8334 30.0959 27.8334C32.0479 27.8334 33.589 26.1668 33.589 24.1334C33.589 22.1001 32.0479 20.4335 30.0959 20.4335Z" fill="white"/>
</svg>
