<svg width="287" height="56" viewBox="0 0 287 56" fill="none" xmlns="http://www.w3.org/2000/svg">
<rect x="1" width="70" height="24" rx="4" fill="#3C3C3C"/>
<rect x="216.307" width="70" height="24" rx="4" fill="#FFC42C"/>
<rect x="0.735718" y="32" width="70" height="24" rx="4" fill="#FFC42C"/>
<rect x="216.307" y="32" width="70" height="24" rx="4" fill="#3C3C3C"/>
<path d="M176.345 28L191.345 28" stroke="white"/>
<path d="M95.6984 28L110.698 28" stroke="white"/>
<path d="M70.7357 12H95.6984V43.9968H70.7369" stroke="white"/>
<path d="M216.307 43.9968L191.345 43.9968L191.345 12L216.306 12" stroke="white"/>
<path d="M216.306 12L191.345 12L191.345 28L176.35 28" stroke="#FFC42C" stroke-width="2"/>
<path d="M70.7423 43.9969L95.7037 43.9969L95.7037 27.9968L110.698 27.9968" stroke="#FFC42C" stroke-width="2"/>
<path d="M143.522 9.43262C131.544 9.43262 121.315 16.7172 117.171 26.9999C121.315 37.2827 131.544 44.5673 143.522 44.5673C155.499 44.5673 165.728 37.2827 169.873 26.9999C165.728 16.7172 155.499 9.43262 143.522 9.43262ZM143.522 38.7115C136.91 38.7115 131.544 33.4647 131.544 26.9999C131.544 20.5352 136.91 15.2884 143.522 15.2884C150.133 15.2884 155.499 20.5352 155.499 26.9999C155.499 33.4647 150.133 38.7115 143.522 38.7115ZM143.522 19.973C139.545 19.973 136.335 23.1117 136.335 26.9999C136.335 30.8882 139.545 34.0269 143.522 34.0269C147.498 34.0269 150.708 30.8882 150.708 26.9999C150.708 23.1117 147.498 19.973 143.522 19.973Z" fill="#FFC42C"/>
</svg>
