<svg width="48" height="48" viewBox="0 0 48 48" fill="none" xmlns="http://www.w3.org/2000/svg">
<path d="M15.3333 11.9999C13.845 11.9999 12.3713 12.2844 10.9963 12.8372C9.62123 13.39 8.37185 14.2003 7.31946 15.2217C6.26706 16.2431 5.43225 17.4558 4.8627 18.7904C4.29315 20.1249 4 21.5553 4 22.9999C4 24.4444 4.29315 25.8748 4.8627 27.2094C5.43225 28.544 6.26706 29.7566 7.31946 30.7781C8.37185 31.7995 9.62123 32.6098 10.9963 33.1626C12.3713 33.7154 13.845 33.9999 15.3333 33.9999C16.8216 33.9999 18.2954 33.7154 19.6704 33.1626C21.0454 32.6098 22.2948 31.7995 23.3472 30.7781C24.3996 29.7566 25.2344 28.544 25.804 27.2094C26.3735 25.8748 26.6667 24.4444 26.6667 22.9999C26.6667 21.5553 26.3735 20.1249 25.804 18.7904C25.2344 17.4558 24.3996 16.2431 23.3472 15.2217C22.2948 14.2003 21.0454 13.39 19.6704 12.8372C18.2954 12.2844 16.8216 11.9999 15.3333 11.9999V11.9999ZM33.3333 13.294C32.633 13.294 31.9394 13.545 31.2924 14.0328C30.6453 14.5206 30.0573 15.2355 29.5621 16.1368C29.0669 17.0381 28.674 18.108 28.406 19.2856C28.138 20.4632 28 21.7253 28 22.9999C28 24.2745 28.138 25.5366 28.406 26.7142C28.674 27.8917 29.0669 28.9617 29.5621 29.863C30.0573 30.7642 30.6453 31.4792 31.2924 31.9669C31.9394 32.4547 32.633 32.7058 33.3333 32.7058C34.0337 32.7058 34.7272 32.4547 35.3743 31.9669C36.0214 31.4792 36.6093 30.7642 37.1046 29.863C37.5998 28.9617 37.9927 27.8917 38.2607 26.7142C38.5287 25.5366 38.6667 24.2745 38.6667 22.9999C38.6667 21.7253 38.5287 20.4632 38.2607 19.2856C37.9927 18.108 37.5998 17.0381 37.1046 16.1368C36.6093 15.2355 36.0214 14.5206 35.3743 14.0328C34.7272 13.545 34.0337 13.294 33.3333 13.294V13.294ZM42 14.5881C41.4696 14.5881 40.9609 15.4743 40.5858 17.0519C40.2107 18.6294 40 20.7689 40 22.9999C40 25.2308 40.2107 27.3704 40.5858 28.9479C40.9609 30.5254 41.4696 31.4116 42 31.4116C42.5304 31.4116 43.0391 30.5254 43.4142 28.9479C43.7893 27.3704 44 25.2308 44 22.9999C44 20.7689 43.7893 18.6294 43.4142 17.0519C43.0391 15.4743 42.5304 14.5881 42 14.5881V14.5881Z" fill="white"/>
</svg>
