<svg width="48" height="48" viewBox="0 0 48 48" fill="none" xmlns="http://www.w3.org/2000/svg">
<path d="M44 11.7884C42.5283 12.4315 40.9467 12.8646 39.2867 13.0599C40.9817 12.0607 42.2833 10.4774 42.895 8.59065C41.31 9.516 39.5533 10.1887 37.6833 10.5513C36.1883 8.98113 34.0533 8 31.6933 8C26.395 8 22.5017 12.8663 23.6983 17.918C16.88 17.5816 10.8333 14.3659 6.785 9.47826C4.635 13.1091 5.67 17.8589 9.32333 20.2641C7.98 20.2215 6.71333 19.8589 5.60833 19.2535C5.51833 22.9959 8.24333 26.4971 12.19 27.2765C11.035 27.5849 9.77 27.6571 8.48333 27.4143C9.52667 30.6235 12.5567 32.9582 16.15 33.0238C12.7 35.6866 8.35333 36.8761 4 36.3708C7.63167 38.6628 11.9467 40 16.58 40C31.8167 40 40.425 27.3322 39.905 15.9705C41.5083 14.8302 42.9 13.4077 44 11.7884V11.7884Z" fill="white"/>
</svg>
