<svg width="78" height="59" viewBox="0 0 78 59" fill="none" xmlns="http://www.w3.org/2000/svg">
<path d="M60.7464 22.3334C61.3697 22.3334 61.9931 22.37 62.5797 22.4434V7.19004C62.5797 3.41337 59.4997 0.333374 55.7231 0.333374H7.10306C3.3264 0.333374 0.246399 3.41337 0.246399 7.19004V44.81C0.246399 48.5867 3.3264 51.6667 7.10306 51.6667H42.7797C41.3864 48.9167 40.5797 45.8 40.5797 42.5C40.5797 31.3534 49.5997 22.3334 60.7464 22.3334ZM31.0464 29.6667L7.57973 15.6967V7.66671H8.42307L31.0831 21.16L54.2931 7.66671H55.2464V15.5867L31.0464 29.6667Z" fill="#FFC42C"/>
<path d="M62.5797 29.6667L57.4097 34.8367L63.203 40.6667H47.913V48.0001H63.203L57.4097 53.8301L62.5797 59.0001L77.2464 44.3334L62.5797 29.6667Z" fill="#FFC42C"/>
</svg>
