<svg width="66" height="66" viewBox="0 0 66 66" fill="none" xmlns="http://www.w3.org/2000/svg">
<g clip-path="url(#clip0_159_261)">
<path d="M41.6522 26.5857L26.4103 19.3087C25.3863 18.8198 24.0369 18.5754 22.6875 18.5754C21.3381 18.5754 19.9887 18.8198 18.9647 19.3087L3.72281 26.5857C1.67475 27.5633 0 30.2193 0 32.488V50.0167C0 52.2855 1.61391 55.059 3.58669 56.1795L19.1008 64.9935C20.0872 65.554 21.3871 65.834 22.6875 65.834C23.9879 65.834 25.2878 65.554 26.2742 64.9935L41.7883 56.1795C43.7611 55.059 45.375 52.2855 45.375 50.0167V32.488C45.375 30.2193 43.7002 27.5638 41.6522 26.5857ZM22.6875 27.1565C24.6809 27.1565 26.2969 28.0794 26.2969 29.219C26.2969 30.3575 24.6809 31.2815 22.6875 31.2815C20.6941 31.2815 19.0781 30.3575 19.0781 29.219C19.0781 28.0794 20.6941 27.1565 22.6875 27.1565ZM8.14069 53.4631C7.92446 53.5707 7.68608 53.6261 7.44459 53.625C6.39066 53.625 5.20988 52.6299 4.5638 51.0804C3.76973 49.1768 4.08375 47.1565 5.26505 46.5682C5.48142 46.4606 5.72 46.4051 5.96166 46.4063C7.01611 46.4063 8.19689 47.4015 8.84245 48.9504C9.63652 50.8546 9.32198 52.8743 8.14069 53.4631ZM8.14069 42.1194C7.92446 42.2269 7.68608 42.2823 7.44459 42.2813C6.39066 42.2813 5.20988 41.2861 4.5638 39.7367C3.76973 37.833 4.08375 35.8128 5.26505 35.2245C5.48142 35.1168 5.72 35.0614 5.96166 35.0625C7.01611 35.0625 8.19689 36.0577 8.84245 37.6066C9.63652 39.5108 9.32198 41.5305 8.14069 42.1194ZM18.4532 59.135C18.237 59.2425 17.9986 59.298 17.7571 59.2969C16.7032 59.2969 15.5224 58.3018 14.8763 56.7523C14.0822 54.8486 14.3963 52.8284 15.5775 52.2401C15.7939 52.1325 16.0325 52.077 16.2742 52.0782C17.3286 52.0782 18.5094 53.0733 19.155 54.6223C19.949 56.5265 19.635 58.5462 18.4537 59.135H18.4532ZM18.4532 47.7913C18.237 47.8988 17.9986 47.9542 17.7571 47.9532C16.7032 47.9532 15.5224 46.958 14.8763 45.4086C14.0822 43.5049 14.3963 41.4847 15.5775 40.8963C15.7939 40.7887 16.0325 40.7333 16.2742 40.7344C17.3286 40.7344 18.5094 41.7296 19.155 43.2785C19.949 45.1827 19.635 47.2024 18.4537 47.7913H18.4532ZM30.4987 56.7528C29.8526 58.3018 28.6718 59.2969 27.6179 59.2969C27.3766 59.2969 27.142 59.2443 26.9218 59.135C25.74 58.5462 25.4255 56.526 26.22 54.6223C26.8656 53.0733 28.0464 52.0782 29.1008 52.0782C29.3425 52.077 29.5811 52.1324 29.7975 52.2401C30.9788 52.8284 31.2928 54.8491 30.4987 56.7528ZM30.4987 45.4091C29.8526 46.958 28.6718 47.9532 27.6179 47.9532C27.3766 47.9532 27.142 47.9006 26.9218 47.7913C25.74 47.2024 25.4255 45.1822 26.22 43.2785C26.8656 41.7296 28.0464 40.7344 29.1008 40.7344C29.3425 40.7332 29.5811 40.7887 29.7975 40.8963C30.9788 41.4847 31.2928 43.5054 30.4987 45.4091ZM40.8112 51.081C40.1651 52.6299 38.9843 53.625 37.9304 53.625C37.6891 53.625 37.4545 53.5725 37.2343 53.4631C36.0525 52.8743 35.738 50.8541 36.5325 48.9504C37.1781 47.4015 38.3589 46.4063 39.4133 46.4063C39.655 46.4051 39.8936 46.4606 40.11 46.5682C41.2913 47.1565 41.6053 49.1773 40.8112 51.081ZM40.8112 39.7372C40.1651 41.2861 38.9843 42.2813 37.9304 42.2813C37.6891 42.2813 37.4545 42.2287 37.2343 42.1194C36.0525 41.5305 35.738 39.5103 36.5325 37.6066C37.1781 36.0577 38.3589 35.0625 39.4133 35.0625C39.655 35.0614 39.8936 35.1168 40.11 35.2245C41.2913 35.8128 41.6053 37.8335 40.8112 39.7372ZM42.3287 31.0902L23.7188 41.3429V62.9063C23.7188 63.1798 23.6101 63.4421 23.4167 63.6355C23.2233 63.8289 22.961 63.9375 22.6875 63.9375C22.414 63.9375 22.1517 63.8289 21.9583 63.6355C21.7649 63.4421 21.6562 63.1798 21.6562 62.9063V41.4207L2.8973 30.9381C2.6615 30.8034 2.48833 30.5812 2.41537 30.3196C2.3424 30.0581 2.37554 29.7783 2.50758 29.5411C2.63962 29.3038 2.85991 29.1282 3.12064 29.0523C3.38136 28.9765 3.66148 29.0065 3.90019 29.136L22.6174 39.5949L41.331 29.285C41.5698 29.1588 41.8486 29.1314 42.1074 29.2086C42.3663 29.2858 42.5845 29.4614 42.7152 29.6978C42.8459 29.9342 42.8786 30.2125 42.8063 30.4727C42.7341 30.733 42.5626 30.9545 42.3287 31.0897V31.0902Z" fill="#FFC42C"/>
<path d="M59.9868 11.2772C59.2309 9.13838 56.8616 6.7696 54.7222 6.01266L38.6966 0.34491C38.1083 0.136082 37.4498 0.0375977 36.7723 0.0375977C34.9836 0.0375977 33.0536 0.722348 31.8904 1.8856L19.4169 14.3591C18.6027 15.1733 17.9922 16.3731 17.6653 17.6436L18.0768 17.4472C19.3385 16.8444 20.9761 16.5128 22.6875 16.5128C22.8406 16.5128 22.9928 16.5185 23.1449 16.5237C23.7497 15.8663 24.452 15.4687 25.1006 15.4687C25.2734 15.4687 25.442 15.496 25.6034 15.5538C26.2273 15.7755 26.6243 16.3984 26.7589 17.2167C26.9445 17.2889 27.126 17.3647 27.2987 17.4472L33.807 20.5543C34.5077 19.3447 35.5291 18.5625 36.4444 18.5625C36.6171 18.5625 36.7857 18.5898 36.9476 18.6475C38.064 19.0435 38.4579 20.7224 37.9103 22.5137L40.5957 23.7955L41.1257 23.2603L35.5261 3.25407C35.4532 2.99122 35.4874 2.71021 35.6212 2.47252C35.755 2.23484 35.9775 2.05986 36.2401 1.98587C36.5026 1.91188 36.7838 1.94492 37.022 2.07775C37.2602 2.21058 37.4361 2.43238 37.5112 2.69461L43.1666 22.8989L63.2373 28.6228C63.4764 28.6911 63.6827 28.8436 63.8183 29.052C63.9539 29.2604 64.0096 29.5108 63.9752 29.757C63.9408 30.0033 63.8186 30.2288 63.6311 30.3921C63.4436 30.5554 63.2034 30.6454 62.9547 30.6456C62.8707 30.6456 46.5248 25.9978 43.0918 25.0212C44.2458 25.7095 45.2672 26.7599 46.0293 27.9742C46.677 28.1541 47.1637 28.5181 47.3524 29.0518C47.5174 29.5159 47.4349 30.0361 47.1616 30.544C47.3375 31.1932 47.4375 31.8486 47.4375 32.4874V48.5115C49.0308 48.2815 50.6318 47.5916 51.6409 46.5831L64.1144 34.1091C65.719 32.505 66.412 29.4427 65.6561 27.3033L59.9868 11.2772ZM34.668 12.0078C34.0132 13.4526 32.7329 14.4375 31.6181 14.4375C31.4454 14.4375 31.2773 14.4137 31.1154 14.3648C29.9088 13.9976 29.5448 12.3476 30.3012 10.6791C30.9555 9.2348 32.2358 8.24996 33.3506 8.24996C33.5234 8.24996 33.692 8.27368 33.8539 8.32266C35.0604 8.68979 35.4245 10.3398 34.668 12.0078ZM52.7005 19.1858C52.4246 19.4622 52.0369 19.5937 51.5893 19.5937C50.6638 19.5937 49.4804 19.0337 48.4806 18.0345C46.9977 16.5515 46.4826 14.6618 47.3292 13.8146C47.6066 13.5377 47.9944 13.4062 48.443 13.4062C49.368 13.4062 50.5514 13.9662 51.5501 14.9649C53.0336 16.4484 53.5492 18.3376 52.7005 19.1858ZM55.9469 35.6993C55.26 35.9664 54.5758 36.0937 53.9591 36.0937C52.8284 36.0937 51.9245 35.6657 51.6476 34.8856C51.2196 33.679 52.4504 32.0878 54.3969 31.3319C55.0837 31.0648 55.7685 30.9375 56.3851 30.9375C57.5154 30.9375 58.4198 31.3654 58.6962 32.1466C59.1241 33.3526 57.8939 34.9433 55.9469 35.6993Z" fill="#FFC42C"/>
</g>
<defs>
<clipPath id="clip0_159_261">
<rect width="66" height="66" fill="white"/>
</clipPath>
</defs>
</svg>
