<svg width="21" height="23" viewBox="0 0 21 23" fill="none" xmlns="http://www.w3.org/2000/svg">
<path d="M17.8866 0.556885C19.1849 0.556885 20.2321 1.59913 20.2939 2.82563V22.5569L17.822 20.4733L16.4646 19.2468L14.9834 17.9653L15.6021 19.9866H2.63939C1.34478 19.9866 0.293945 19.0103 0.293945 17.7169V2.83022C0.293945 1.60372 1.34663 0.559635 2.64401 0.559635H17.8802L17.8866 0.556885ZM12.2372 5.7663H12.2095L12.023 5.94963C13.9372 6.49963 14.8634 7.35855 14.8634 7.35855C13.6297 6.74622 12.518 6.44005 11.4062 6.3163C10.6028 6.19255 9.79946 6.25764 9.12076 6.3163H8.93608C8.50208 6.3163 7.57868 6.49964 6.34132 6.99005C5.91009 7.17614 5.66261 7.29805 5.66261 7.29805C5.66261 7.29805 6.58786 6.37955 8.62674 5.88913L8.50208 5.76539C8.50208 5.76539 6.95815 5.70672 5.29141 6.92955C5.29141 6.92955 3.62466 9.81155 3.62466 13.3646C3.62466 13.3646 4.54807 14.9596 7.08096 15.0201C7.08096 15.0201 7.45032 14.5315 7.8243 14.1016C6.40226 13.6726 5.84822 12.8146 5.84822 12.8146C5.84822 12.8146 5.97195 12.8751 6.15756 12.9979H6.21296C6.24066 12.9979 6.25359 13.0116 6.26837 13.0254V13.0309C6.28314 13.0456 6.29607 13.0584 6.32377 13.0584C6.62849 13.1831 6.93322 13.3059 7.18254 13.4251C7.61284 13.6102 8.16596 13.7945 8.84466 13.9164C9.70343 14.0401 10.6878 14.0997 11.8088 13.9164C12.3628 13.7926 12.9169 13.6716 13.4709 13.426C13.831 13.2426 14.2743 13.0593 14.7609 12.7504C14.7609 12.7504 14.2069 13.6084 12.7248 14.0374C13.0295 14.4646 13.4589 14.9541 13.4589 14.9541C15.9927 14.8991 16.9771 13.3041 17.0325 13.3719C17.0325 9.82438 15.3565 6.93688 15.3565 6.93688C13.8467 5.82405 12.4339 5.78188 12.1846 5.78188L12.2363 5.76355L12.2372 5.7663ZM12.3924 9.81155C13.0415 9.81155 13.5651 10.3616 13.5651 11.0353C13.5651 11.7136 13.0388 12.2636 12.3924 12.2636C11.746 12.2636 11.2197 11.7136 11.2197 11.0408C11.2215 10.3625 11.7488 9.8143 12.3924 9.8143V9.81155ZM8.19736 9.81155C8.84374 9.81155 9.36639 10.3616 9.36639 11.0353C9.36639 11.7136 8.84005 12.2636 8.19366 12.2636C7.54728 12.2636 7.02094 11.7136 7.02094 11.0408C7.02094 10.3625 7.54728 9.8143 8.19366 9.8143L8.19736 9.81155Z" fill="white"/>
</svg>
