<svg width="20" height="20" viewBox="0 0 20 20" fill="none" xmlns="http://www.w3.org/2000/svg">
<g clip-path="url(#clip0_216_1077)">
<path fill-rule="evenodd" clip-rule="evenodd" d="M10 0C15.5228 0 20 4.47715 20 10C20 14.9913 16.3431 19.1283 11.5625 19.8785V12.8906H13.8926L14.3359 10H11.5625V8.12417C11.5625 8.02531 11.5686 7.92677 11.5816 7.83001C11.6727 7.15267 12.1052 6.5625 13.1921 6.5625H14.4531V4.10156C14.4531 4.10156 13.3087 3.90625 12.2146 3.90625C9.93044 3.90625 8.4375 5.29062 8.4375 7.79688V10H5.89844V12.8906H8.4375V19.8785C3.65686 19.1283 0 14.9913 0 10C0 4.47715 4.47715 0 10 0Z" fill="white"/>
</g>
<defs>
<clipPath id="clip0_216_1077">
<rect width="20" height="20" fill="white"/>
</clipPath>
</defs>
</svg>
