<svg width="21" height="21" viewBox="0 0 21 21" fill="none" xmlns="http://www.w3.org/2000/svg">
<path d="M10.2944 0.804443C4.77128 0.804443 0.293945 5.2826 0.293945 10.8048C0.293945 16.3279 4.77128 20.8044 10.2944 20.8044C15.8174 20.8044 20.2939 16.3279 20.2939 10.8048C20.2939 5.2826 15.817 0.804443 10.2944 0.804443ZM15.3317 8.78852C15.337 8.89655 15.339 9.00498 15.339 9.11463C15.339 12.4451 12.8041 16.2849 8.16878 16.2849C6.74578 16.2849 5.42065 15.8678 4.30548 15.153C4.50285 15.1762 4.70306 15.188 4.90652 15.188C6.08748 15.188 7.17422 14.7851 8.03639 14.1093C6.93381 14.0886 6.00342 13.3597 5.68259 12.3586C5.8361 12.3887 5.99408 12.4037 6.15652 12.4037C6.38638 12.4037 6.60892 12.3736 6.8205 12.3156C5.66716 12.0841 4.79849 11.0648 4.79849 9.84481C4.79849 9.83385 4.79849 9.82329 4.7989 9.81232C5.13841 10.0012 5.52705 10.1145 5.94047 10.1279C5.26389 9.67506 4.8192 8.90467 4.8192 8.02991C4.8192 7.56817 4.94347 7.13485 5.16034 6.76286C6.40343 8.28739 8.26056 9.29088 10.3553 9.39566C10.3122 9.21169 10.2899 9.01879 10.2899 8.82142C10.2899 7.43009 11.4181 6.30152 12.8102 6.30152C13.5351 6.30152 14.1897 6.60773 14.6495 7.09708C15.2237 6.98459 15.763 6.77423 16.2499 6.48549C16.0611 7.07434 15.6619 7.56817 15.1412 7.87965C15.6517 7.81874 16.1374 7.6831 16.589 7.48289C16.252 7.9893 15.8243 8.43318 15.3317 8.78852Z" fill="white"/>
</svg>
