<svg width="21" height="21" viewBox="0 0 21 21" fill="none" xmlns="http://www.w3.org/2000/svg">
<path fill-rule="evenodd" clip-rule="evenodd" d="M20.2939 10.1035C20.2939 4.58438 15.8132 0.103516 10.2942 0.103516H10.2937C4.7747 0.103516 0.293945 4.58438 0.293945 10.1035C0.293945 15.6227 4.7747 20.1035 10.2937 20.1035H10.2942C15.8132 20.1035 20.2939 15.6227 20.2939 10.1035ZM11.298 10.1036C11.298 12.5618 9.31887 14.5545 6.87757 14.5545C4.43626 14.5545 2.45695 12.5613 2.45695 10.1036C2.45695 7.64586 4.43611 5.65255 6.87757 5.65255C9.31902 5.65255 11.298 7.64543 11.298 10.1036ZM16.1474 10.1036C16.1474 12.4174 15.1578 14.2939 13.9371 14.2939C12.7164 14.2939 11.7268 12.4174 11.7268 10.1036C11.7268 7.78975 12.7162 5.91325 13.937 5.91325C15.1577 5.91325 16.1473 7.78916 16.1473 10.1036H16.1474ZM18.1309 10.1036C18.1309 12.1762 17.7829 13.8574 17.3536 13.8574C16.9242 13.8574 16.5764 12.1767 16.5764 10.1036C16.5764 8.03051 16.9243 6.34974 17.3536 6.34974C17.7828 6.34974 18.1309 8.03035 18.1309 10.1036Z" fill="white"/>
</svg>
