<svg width="20" height="20" viewBox="0 0 20 20" fill="none" xmlns="http://www.w3.org/2000/svg">
<g clip-path="url(#clip0_216_1081)">
<path d="M9.99991 4.79834C7.17733 4.79834 4.83862 7.09673 4.83862 9.95963C4.83862 12.8225 7.13701 15.1209 9.99991 15.1209C12.8628 15.1209 15.1612 12.7822 15.1612 9.95963C15.1612 7.13705 12.8225 4.79834 9.99991 4.79834ZM9.99991 13.2661C8.1854 13.2661 6.69346 11.7741 6.69346 9.95963C6.69346 8.14511 8.1854 6.65318 9.99991 6.65318C11.8144 6.65318 13.3064 8.14511 13.3064 9.95963C13.3064 11.7741 11.8144 13.2661 9.99991 13.2661Z" fill="white"/>
<path d="M15.363 5.84677C16.0088 5.84677 16.5323 5.32323 16.5323 4.67741C16.5323 4.03159 16.0088 3.50806 15.363 3.50806C14.7171 3.50806 14.1936 4.03159 14.1936 4.67741C14.1936 5.32323 14.7171 5.84677 15.363 5.84677Z" fill="white"/>
<path d="M18.3871 1.65323C17.3387 0.564516 15.8468 0 14.1532 0H5.84677C2.33871 0 0 2.33871 0 5.84677V14.1129C0 15.8468 0.564516 17.3387 1.69355 18.4274C2.78226 19.4758 4.23387 20 5.8871 20H14.1129C15.8468 20 17.2984 19.4355 18.3468 18.4274C19.4355 17.379 20 15.8871 20 14.1532V5.84677C20 4.15323 19.4355 2.70161 18.3871 1.65323ZM18.2258 14.1532C18.2258 15.4032 17.7823 16.4113 17.0564 17.0968C16.3306 17.7823 15.3226 18.1452 14.1129 18.1452H5.8871C4.67742 18.1452 3.66935 17.7823 2.94355 17.0968C2.21774 16.371 1.85484 15.3629 1.85484 14.1129V5.84677C1.85484 4.6371 2.21774 3.62903 2.94355 2.90323C3.62903 2.21774 4.67742 1.85484 5.8871 1.85484H14.1935C15.4032 1.85484 16.4113 2.21774 17.1371 2.94355C17.8226 3.66935 18.2258 4.67742 18.2258 5.84677V14.1532Z" fill="white"/>
</g>
<defs>
<clipPath id="clip0_216_1081">
<rect width="20" height="20" fill="white"/>
</clipPath>
</defs>
</svg>
