<svg width="24" height="24" viewBox="0 0 24 24" fill="none" xmlns="http://www.w3.org/2000/svg">
<path d="M16.6667 14.6667H15.6134L15.2401 14.3067C16.5467 12.7867 17.3334 10.8133 17.3334 8.66667C17.3334 3.88 13.4534 0 8.66673 0C3.88006 0 6.10352e-05 3.88 6.10352e-05 8.66667C6.10352e-05 13.4533 3.88006 17.3333 8.66673 17.3333C10.8134 17.3333 12.7867 16.5467 14.3067 15.24L14.6667 15.6133V16.6667L21.3334 23.32L23.3201 21.3333L16.6667 14.6667ZM8.66673 14.6667C5.34673 14.6667 2.66673 11.9867 2.66673 8.66667C2.66673 5.34667 5.34673 2.66667 8.66673 2.66667C11.9867 2.66667 14.6667 5.34667 14.6667 8.66667C14.6667 11.9867 11.9867 14.6667 8.66673 14.6667Z" fill="white"/>
</svg>
