<svg width="282" height="56" viewBox="0 0 282 56" fill="none" xmlns="http://www.w3.org/2000/svg">
<rect x="68.7083" width="70" height="24" rx="4" fill="#3C3C3C"/>
<g clip-path="url(#clip0_137_18032)">
<path d="M103.492 3.66663C99.1221 3.66663 95.5834 7.39996 95.5834 12C95.5834 16.6 99.1221 20.3333 103.492 20.3333C107.87 20.3333 111.417 16.6 111.417 12C111.417 7.39996 107.87 3.66663 103.492 3.66663ZM106.849 17L103.5 14.875L100.151 17L101.038 12.9916L98.085 10.3L101.98 9.94996L103.5 6.16663L105.02 9.94163L108.915 10.2916L105.962 12.9833L106.849 17Z" fill="#FFC42C"/>
</g>
<rect x="211.134" width="70" height="24" rx="4" fill="#3B3B3B"/>
<rect x="68.7083" y="32" width="70" height="24" rx="4" fill="#3B3B3B"/>
<rect x="211.134" y="32" width="70" height="24" rx="4" fill="#3C3C3C"/>
<path d="M163.671 28L186.171 28" stroke="white"/>
<path d="M138.708 12H163.671V43.9968H138.71" stroke="white"/>
<path d="M211.134 43.9968L186.171 43.9968L186.171 12L211.132 12" stroke="white"/>
<g clip-path="url(#clip1_137_18032)">
<path d="M44.3645 27.0684H31.3923C32.5665 22.5417 32.6592 19.5359 30.8332 14.6573C30.1484 12.8257 28.3763 11.595 26.4235 11.595C23.8284 11.595 21.7171 13.7058 21.7171 16.3003V18.6399C21.7171 25.1775 15.9583 26.66 12.7738 26.9788C12.0268 25.6333 10.5915 24.7201 8.94646 24.7201H1.2901C0.686131 24.7201 0.19635 25.2099 0.19635 25.8138V53.1576C0.19635 53.7615 0.686131 54.2513 1.2901 54.2513H8.94635C10.5626 54.2513 11.9759 53.3697 12.7335 52.0626C15.0479 51.8379 18.0831 52.0101 21.7726 52.5783C27.4618 53.4541 30.6082 53.0562 37.4791 53.1576C39.6852 53.1576 41.549 51.2498 41.549 48.9915C41.549 48.2261 41.3361 47.5096 40.9671 46.8974C42.5774 46.3548 43.7408 44.8314 43.7408 43.0404C43.7408 42.2954 43.5387 41.5972 43.1878 40.996C44.8804 40.503 46.1213 38.9387 46.1213 37.0891C46.1213 36.3449 45.9195 35.6473 45.5693 35.0465C47.2674 34.5561 48.5392 32.9672 48.5009 31.055C48.4566 28.8566 46.6012 27.0684 44.3645 27.0684ZM11.1339 49.8762C11.1339 51.0824 10.1525 52.0637 8.94635 52.0637H2.38385V26.9075H8.94635C10.1525 26.9075 11.1339 27.8888 11.1339 29.095V49.8762ZM44.4322 33.0197C43.7538 33.0197 38.0623 33.0197 37.3839 33.0197C36.7799 33.0197 36.2901 33.5095 36.2901 34.1134C36.2901 34.7174 36.7799 35.2072 37.3839 35.2072H42.0518C43.0894 35.2072 43.9337 36.0513 43.9337 37.089C43.9337 38.1266 43.0894 38.9709 42.0518 38.9709C37.5685 38.9701 39.2992 38.9707 37.3839 38.9704C36.7799 38.9704 36.2901 39.4602 36.2901 40.0642V40.0646C36.2901 40.6686 36.7799 41.1584 37.3839 41.1584H39.6793C40.7133 41.163 41.5532 42.0053 41.5532 43.0403C41.5532 44.0781 40.7087 44.9226 39.6709 44.9226H37.3839C36.7799 44.9226 36.2901 45.4124 36.2901 46.0164C36.2901 46.6203 36.7799 47.1101 37.3839 47.1101H37.479C38.5169 47.1101 39.3613 47.9541 39.3613 48.9914C39.3613 50.0639 38.4994 50.97 37.479 50.97H29.1753C26.8708 50.97 24.4923 50.7837 22.1054 50.4162C18.5881 49.8747 15.6966 49.6788 13.3212 49.8219V29.1209C16.1942 28.7921 18.634 27.8609 20.4272 26.3979C22.702 24.5419 23.9044 21.8593 23.9044 18.6398V16.3002C23.9044 14.9119 25.0343 13.7824 26.4233 13.7824C27.4684 13.7824 28.4171 14.4417 28.7841 15.4236C30.5491 20.139 30.3509 22.7821 28.9083 27.8631C28.711 28.5583 29.2345 29.2556 29.9661 29.2556H44.3644C45.4189 29.2556 46.2932 30.0824 46.3136 31.0985C46.3349 32.154 45.4896 33.0197 44.4322 33.0197Z" fill="#FFC42C"/>
<path d="M44.4704 1.76593C38.3767 2.07645 33.8177 7.29714 34.1167 13.2499C34.3917 19.0248 39.2036 23.6212 45.0398 23.6259C51.1347 23.6309 55.9775 18.6642 55.9775 12.6887C55.9775 6.2735 50.5358 1.4226 44.4704 1.76593ZM46.1338 4.00943C47.7288 4.20937 49.1909 4.83948 50.401 5.78076L48.8391 7.34275C48.0486 6.77935 47.1292 6.38681 46.1338 6.21903V4.00943ZM43.9463 4.00943V6.21629C43.9234 6.22012 43.698 6.26485 43.6871 6.26715C42.8226 6.44751 41.982 6.80659 41.2368 7.3387L39.679 5.78076C40.8891 4.83948 42.3513 4.20937 43.9463 4.00943ZM38.1321 7.32765L39.6941 8.88964C39.1307 9.68009 38.7382 10.5995 38.5704 11.5949H36.3608C36.5607 9.9999 37.1908 8.53778 38.1321 7.32765ZM36.3608 13.7824H38.5677C38.5715 13.8053 38.6162 14.0307 38.6185 14.0416C38.7981 14.9025 39.1558 15.7437 39.6901 16.4919L38.1321 18.0497C37.1908 16.8396 36.5607 15.3774 36.3608 13.7824ZM43.9463 21.3679C42.3513 21.168 40.8891 20.5379 39.679 19.5966L41.241 18.0346C42.0314 18.598 42.9509 18.9905 43.9463 19.1583V21.3679ZM45.04 17.0637C42.5933 17.0637 40.665 15.066 40.665 12.6887C40.665 10.3238 42.577 8.31367 45.04 8.31367C47.4049 8.31367 49.415 10.2257 49.415 12.6887C49.415 15.1009 47.4521 17.0637 45.04 17.0637ZM46.1338 21.3679V19.161C46.1566 19.1572 46.3821 19.1125 46.393 19.1102C47.2526 18.9308 48.0937 18.5739 48.8432 18.0386L50.401 19.5966C49.1909 20.5379 47.7288 21.168 46.1338 21.3679ZM51.9479 18.0497L50.386 16.4877C50.9493 15.6972 51.3419 14.7778 51.5097 13.7824H53.7193C53.5193 15.3774 52.8892 16.8396 51.9479 18.0497ZM51.5124 11.5949C51.5086 11.5721 51.4638 11.3466 51.4615 11.3357C51.282 10.4747 50.9243 9.6336 50.39 8.88548L51.9479 7.32765C52.8892 8.53778 53.5193 9.9999 53.7193 11.5949H51.5124Z" fill="#FFC42C"/>
</g>
<defs>
<clipPath id="clip0_137_18032">
<rect width="19" height="20" fill="white" transform="translate(94.0001 2)"/>
</clipPath>
<clipPath id="clip1_137_18032">
<rect width="56" height="56" fill="white" transform="translate(0.0869751)"/>
</clipPath>
</defs>
</svg>
