<svg width="279" height="79" viewBox="0 0 279 79" fill="none" xmlns="http://www.w3.org/2000/svg">
<path d="M144.685 48.917C144.685 42.3842 141.191 36.3124 135.766 32.8538C137.104 30.625 137.921 28.0887 137.921 25.3218C137.921 17.5592 131.53 11.3337 124.469 11.3337H104.625V67.6703H126.699C136.584 67.4397 144.685 59.1391 144.685 48.917ZM117.483 57.4482V39.0793H124.543C128.111 39.0793 131.455 42.5379 131.455 48.1485C131.455 53.8359 128.111 57.4482 124.766 57.4482H117.483ZM123.651 21.0178C125.881 21.0178 127.368 23.4772 127.368 26.0904C127.368 29.6258 125.435 31.3935 123.354 31.3935H117.483V21.0178H123.651Z" fill="white"/>
<path d="M188.801 67.6703L179.659 46.5345C184.49 42.6147 187.388 36.9273 187.388 30.9324C187.388 20.0955 178.47 11.3337 168.511 11.3337H149.41V67.6703H162.342V50.5311H167.099C167.693 50.5311 168.213 50.5311 168.808 50.4542L175.794 67.6703H188.801ZM162.268 40.3859V21.5558H167.767C171.781 21.5558 174.977 25.8598 174.977 30.9324C174.977 36.2356 171.781 40.3859 167.916 40.3859H162.268Z" fill="white"/>
<path d="M210.254 49.9931L220.138 67.6703H233.962L217.24 37.619L231.956 11.3337H220.287L206.909 35.3133V11.3337H193.977V67.6703H206.909V55.9111L210.254 49.9931Z" fill="white"/>
<path d="M273.635 21.4021L272.891 11.3337H237.588L236.845 21.4021H248.737V67.6703H261.669V21.4021H273.635Z" fill="white"/>
<path fill-rule="evenodd" clip-rule="evenodd" d="M10.7308 3.28564C4.80433 3.28564 0 8.08997 0 14.0164V64.9876C0 70.914 4.80433 75.7183 10.7308 75.7183H72.4327C78.3591 75.7183 83.1635 70.914 83.1635 64.9876V14.0164C83.1635 8.08997 78.3591 3.28564 72.4327 3.28564H10.7308ZM71.0913 15.3578H59.1744V21.0737H64.1201V57.9302H59.1744V63.6461H71.0913V15.3578ZM30.6551 53.4643C30.2594 53.4643 29.9485 53.1647 29.9485 52.7987V50.3631H53.0797V52.7987C53.0797 53.1647 52.7618 53.4643 52.3732 53.4643H30.6551ZM58.0253 31.4916C58.2725 31.3119 58.6116 31.2987 58.873 31.465C59.1274 31.6315 59.2334 31.9377 59.1415 32.2172L53.3456 49.0318H29.6823L23.8797 32.2172C23.7878 31.9377 23.8938 31.6315 24.1552 31.465C24.4095 31.2987 24.7486 31.3053 24.9959 31.4916L34.336 38.4875L40.8924 27.1118C41.1397 26.6859 41.8885 26.6791 42.1288 27.1118L48.6852 38.4875L58.0253 31.4916ZM23.9891 63.6462H12.0721V15.3578H23.9891V21.0738H19.0433L19.0433 57.9303H23.9891V63.6462Z" fill="white"/>
</svg>
