<svg width="128" height="34" viewBox="0 0 128 34" fill="none" xmlns="http://www.w3.org/2000/svg">
<path d="M67.4158 21.3869C67.4158 18.3429 65.7881 15.5138 63.2601 13.9023C63.8835 12.8637 64.2644 11.682 64.2644 10.3927C64.2644 6.77575 61.2862 3.875 57.9963 3.875H48.75V30.125H59.0352C63.6411 30.0176 67.4158 26.1499 67.4158 21.3869ZM54.7411 25.362V16.803H58.0309C59.6932 16.803 61.2516 18.4146 61.2516 21.0288C61.2516 23.6789 59.6932 25.362 58.1348 25.362H54.7411ZM57.6154 8.38728C58.6543 8.38728 59.3469 9.53325 59.3469 10.7509C59.3469 12.3982 58.4465 13.2219 57.4769 13.2219H54.7411V8.38728H57.6154Z" fill="black"/>
<path d="M87.9716 30.125L83.7121 20.2768C85.963 18.4504 87.3136 15.8003 87.3136 13.007C87.3136 7.95754 83.158 3.875 78.5175 3.875H69.6175V30.125H75.6432V22.139H77.8595C78.1366 22.139 78.379 22.139 78.656 22.1032L81.9113 30.125H87.9716ZM75.6086 17.4118V8.63796H78.1712C80.0412 8.63796 81.5303 10.6434 81.5303 13.007C81.5303 15.478 80.0412 17.4118 78.2405 17.4118H75.6086Z" fill="black"/>
<path d="M97.9676 21.8883L102.573 30.125H109.015L101.223 16.1226L108.08 3.875H102.643L96.4092 15.0483V3.875H90.3835V30.125H96.4092V24.6458L97.9676 21.8883Z" fill="black"/>
<path d="M127.5 8.56634L127.154 3.875H110.704L110.358 8.56634H115.899V30.125H121.925V8.56634H127.5Z" fill="black"/>
<path fill-rule="evenodd" clip-rule="evenodd" d="M5 0.125C2.23858 0.125 0 2.36358 0 5.125V28.875C0 31.6364 2.23858 33.875 5 33.875H33.75C36.5114 33.875 38.75 31.6364 38.75 28.875V5.125C38.75 2.36358 36.5114 0.125 33.75 0.125H5ZM33.125 5.75H27.5723V8.41335H29.8768V25.5866H27.5723V28.25H33.125V5.75ZM14.2837 23.5057C14.0994 23.5057 13.9545 23.3662 13.9545 23.1956V22.0607H24.7325V23.1956C24.7325 23.3662 24.5843 23.5057 24.4033 23.5057H14.2837ZM27.0369 13.2676C27.1521 13.1838 27.3101 13.1777 27.4319 13.2552C27.5504 13.3327 27.5998 13.4754 27.557 13.6056L24.8564 21.4404H13.8305L11.1267 13.6056C11.0839 13.4754 11.1333 13.3327 11.2551 13.2552C11.3736 13.1777 11.5316 13.1807 11.6469 13.2676L15.9988 16.5273L19.0538 11.2268C19.169 11.0283 19.518 11.0252 19.6299 11.2268L22.6849 16.5273L27.0369 13.2676ZM11.1777 28.25H5.625V5.75004H11.1777V8.41338L8.87323 8.41338L8.87323 25.5867H11.1777V28.25Z" fill="black"/>
</svg>
